<?xml version="1.0" encoding="UTF-8"?>
<svg width="181px" height="71px" viewBox="0 0 181 71" version="1.1" xmlns="http://www.w3.org/2000/svg" xmlns:xlink="http://www.w3.org/1999/xlink">
    <!-- Generator: Sketch 63.1 (92452) - https://sketch.com -->
    <title>Tabletlogo</title>
    <desc>Created with Sketch.</desc>
    <defs>
        <filter x="-18.8%" y="-53.3%" width="176.6%" height="184.2%" filterUnits="objectBoundingBox" id="filter-1">
            <feOffset dx="0" dy="2" in="SourceAlpha" result="shadowOffsetOuter1"></feOffset>
            <feGaussianBlur stdDeviation="2.5" in="shadowOffsetOuter1" result="shadowBlurOuter1"></feGaussianBlur>
            <feColorMatrix values="0 0 0 0 0   0 0 0 0 0   0 0 0 0 0  0 0 0 0.5 0" type="matrix" in="shadowBlurOuter1" result="shadowMatrixOuter1"></feColorMatrix>
            <feMerge>
                <feMergeNode in="shadowMatrixOuter1"></feMergeNode>
                <feMergeNode in="SourceGraphic"></feMergeNode>
            </feMerge>
        </filter>
        <path d="M39.6232984,9.95366417 C31.0177948,9.94360122 23.334242,14.1894274 18.6224512,20.6011748 C15.962332,24.2210327 14.3285242,27.129803 13.1933668,31.4671822 C13.0476692,32.0238855 13.0866167,32.4765821 13.0250336,33.0472362 C12.967727,33.5782613 12.8050178,34.2283061 12.801433,34.7215988 C12.7939959,35.7449974 12.6860468,36.900958 12.8486166,37.9696828 C13.7885532,44.1487745 16.7745205,50.1929815 19.4985205,55.1377812 C21.6239796,58.9415966 23.4651334,62.2328458 23.6455841,64.5773993 C23.676191,64.9494902 24.0028176,65.2276649 24.375125,65.1987198 C24.7474325,65.1697748 25.0244356,64.844671 24.9938287,64.4725802 C24.7858166,61.8585228 22.8769725,58.4458755 20.6837638,54.4937176 C17.5293759,48.8284851 13.8850605,43.0071894 13.8697049,36.0150995 C13.8396057,22.3096802 27.0517861,10.8857626 40.7700009,10.9158618 C54.4882157,10.9459609 63.2225057,21.2258025 63.2526048,34.9312218 C63.2679013,41.8963673 59.3592652,48.9202641 56.2297008,54.5582368 C54.0538301,58.5008085 52.2004115,61.905201 51.9634247,64.518282 C51.948925,64.6970313 52.0064201,64.8744879 52.1231635,65.0113105 C52.2399069,65.148133 52.4062531,65.2330169 52.5853238,65.2473888 C52.9376128,65.2490446 53.2307927,64.9796702 53.2582035,64.6289002 C53.3213369,63.764421 53.6124418,62.7688054 54.0613457,61.6639087 C54.8225184,59.7904179 56.037386,57.6027285 57.3638453,55.2073894 C60.5739931,49.4213997 64.5631534,42.2225413 64.5473554,34.9205899 C64.4858537,20.5087183 54.0486195,10.0297652 39.6232984,9.95366417 Z" id="path-2"></path>
        <filter x="-2.9%" y="-2.7%" width="105.8%" height="105.4%" filterUnits="objectBoundingBox" id="filter-3">
            <feOffset dx="0" dy="0" in="SourceAlpha" result="shadowOffsetOuter1"></feOffset>
            <feGaussianBlur stdDeviation="0.5" in="shadowOffsetOuter1" result="shadowBlurOuter1"></feGaussianBlur>
            <feColorMatrix values="0 0 0 0 1   0 0 0 0 0.387603641   0 0 0 0 0.413431078  0 0 0 1 0" type="matrix" in="shadowBlurOuter1"></feColorMatrix>
        </filter>
        <path d="M51.9848281,54.2082063 C48.308959,56.9012267 43.7019942,58.3223989 38.982454,58.219223 C34.2629138,58.3223989 29.6559491,56.9012267 25.9800799,54.2082063 C25.6935638,53.9984077 25.2761271,54.0309511 25.0330846,54.2820341 C24.7900422,54.5331172 24.8076094,54.9136722 25.0729375,55.1453597 C29.0001359,58.0382399 33.9291268,59.5702849 38.982454,59.4687609 C44.0357812,59.5702849 48.9647721,58.0382399 52.8919705,55.1453597 C53.1572987,54.9136722 53.1748659,54.5331172 52.9318234,54.2820341 C52.6887809,54.0309511 52.2713442,53.9984077 51.9848281,54.2082063 L51.9848281,54.2082063 Z" id="path-4"></path>
        <filter x="-109.3%" y="-437.5%" width="322.9%" height="1259.2%" filterUnits="objectBoundingBox" id="filter-5">
            <feMorphology radius="1.5" operator="dilate" in="SourceAlpha" result="shadowSpreadOuter1"></feMorphology>
            <feOffset dx="0" dy="8" in="shadowSpreadOuter1" result="shadowOffsetOuter1"></feOffset>
            <feGaussianBlur stdDeviation="7.5" in="shadowOffsetOuter1" result="shadowBlurOuter1"></feGaussianBlur>
            <feColorMatrix values="0 0 0 0 0   0 0 0 0 0.612543706   0 0 0 0 1  0 0 0 1 0" type="matrix" in="shadowBlurOuter1"></feColorMatrix>
        </filter>
        <path d="M18.9739953,3.62856675 C16.4457399,1.85697841 13.5052689,0.88079708 10.5373168,0.88079708 C6.77241473,0.88079708 3.19987988,2.36314651 0.259408885,5.14707104 C0.0120795491,5.36400022 -0.0428825255,5.83401345 0.122003698,6.15940723 C0.149484736,6.19556209 0.176965773,6.23171696 0.20444681,6.26787182 C0.20444681,6.26787182 0.231927848,6.30402669 0.231927848,6.30402669 C0.259408885,6.34018155 0.286889922,6.34018155 0.314370959,6.37633641 C0.314370959,6.37633641 0.341851997,6.37633641 0.341851997,6.41249128 C0.369333034,6.41249128 0.396814071,6.44864614 0.424295109,6.44864614 C0.424295109,6.44864614 0.451776146,6.44864614 0.451776146,6.44864614 C0.479257183,6.44864614 0.506738221,6.44864614 0.534219258,6.44864614 C0.534219258,6.44864614 0.561700295,6.44864614 0.561700295,6.44864614 C0.561700295,6.44864614 0.561700295,6.44864614 0.561700295,6.44864614 C0.61666237,6.44864614 0.644143407,6.44864614 0.699105482,6.41249128 C0.699105482,6.41249128 0.726586519,6.41249128 0.726586519,6.41249128 C0.781548594,6.37633641 0.809029631,6.37633641 0.863991706,6.30402669 C3.66705751,3.70087648 6.99226302,2.32699164 10.5373168,2.32699164 C13.3403826,2.32699164 16.0884864,3.23086324 18.4518556,4.93014185 C18.754147,5.14707104 18.9465143,5.50861968 19.0014763,5.94247805 C19.0564384,6.37633641 18.9465143,6.77403992 18.726666,7.06327883 L18.5617797,7.28020802 C18.2320073,7.71406638 17.7373486,7.78637611 17.3526141,7.4971372 C15.3190173,5.97863291 12.9556481,5.1832259 10.5647979,5.1832259 C8.50372008,5.1832259 6.52508539,5.76170373 4.71133693,6.84634965 C4.07927307,7.24405315 3.63957647,8.0033053 3.52965232,8.87102203 C3.41972818,9.77489364 3.63957647,10.6787652 4.10675411,11.3295528 L4.13423514,11.3657077 C4.5464507,11.9080306 5.06859041,12.1611147 5.61821116,12.1611147 C5.94798361,12.1611147 6.27775605,12.0526501 6.58004747,11.8718757 C7.78921311,11.0764687 9.16326497,10.6787652 10.5647979,10.6787652 C11.5541152,10.6787652 12.4884705,10.8595396 13.4228258,11.2572431 C13.7525982,11.4018625 14.0274086,11.7634112 14.1098517,12.2334244 C14.1922948,12.7034376 14.0823706,13.137296 13.8350413,13.4988446 C13.5602309,13.8603933 13.1480154,14.0050127 12.7907619,13.8242384 C12.103736,13.4988446 11.389229,13.3180703 10.647241,13.3180703 C10.6197599,13.3180703 10.5922789,13.3180703 10.5647979,13.3180703 C9.82280987,13.3180703 9.08082186,13.4988446 8.36631489,13.8242384 C8.33883385,13.8242384 8.33883385,13.8242384 8.31135282,13.8603933 C8.2289097,13.8965481 8.14646659,13.932703 8.06402348,14.0050127 C8.00906141,14.0411676 7.95409933,14.0773225 7.92661829,14.0773225 C7.87165622,14.1134773 7.81669414,14.1496322 7.76173207,14.185787 C7.65180792,14.2580968 7.54188377,14.3304065 7.43195962,14.4027162 C7.15714925,14.5834906 7.07470614,15.0535038 7.21211132,15.3788976 C7.32203547,15.6319816 7.4869217,15.7404462 7.67928896,15.7404462 C7.76173207,15.7404462 7.87165622,15.7042913 7.95409933,15.6319816 C8.11898555,15.523517 8.28387178,15.4150524 8.448758,15.3065878 C8.47623904,15.3065878 8.47623904,15.3065878 8.50372008,15.270433 C9.74036676,14.5834906 11.1693807,14.5473357 12.4335084,15.1258135 C13.2029775,15.4873622 14.0548896,15.2342781 14.6319914,14.475026 C15.1541311,13.7880835 15.3739794,12.8119022 15.1816121,11.8718757 C15.0167259,10.9318493 14.4945862,10.1725971 13.7800792,9.88335823 C12.7632809,9.44949986 11.6915204,9.23257067 10.5922789,9.23257067 C9.02585979,9.23257067 7.4869217,9.70258391 6.14035087,10.5703006 C5.72813531,10.8233847 5.26095767,10.751075 4.95866626,10.3172166 L4.93118523,10.2810617 C4.68385589,9.95566796 4.60141278,9.52180959 4.65637485,9.08795122 C4.71133693,8.65409285 4.93118523,8.29254421 5.23347664,8.11176989 C6.90981991,7.0994337 8.72356838,6.55711073 10.6197599,6.55711073 C12.845724,6.55711073 14.9892449,7.28020802 16.8854365,8.69024771 C17.7098676,9.3048804 18.754147,9.12410608 19.4136919,8.22023448 L19.5785781,8.0033053 C20.0457557,7.38867261 20.265604,6.52095587 20.1831609,5.65323913 C19.9907937,4.82167726 19.5785781,4.06242512 18.9739953,3.62856675 Z" id="path-6"></path>
        <filter x="-180.9%" y="-238.9%" width="461.9%" height="591.3%" filterUnits="objectBoundingBox" id="filter-7">
            <feOffset dx="0" dy="1" in="SourceAlpha" result="shadowOffsetOuter1"></feOffset>
            <feGaussianBlur stdDeviation="12" in="shadowOffsetOuter1" result="shadowBlurOuter1"></feGaussianBlur>
            <feColorMatrix values="0 0 0 0 0.992156863   0 0 0 0 0.431372549   0 0 0 0 0.439215686  0 0 0 1 0" type="matrix" in="shadowBlurOuter1"></feColorMatrix>
        </filter>
        <text id="text-8" font-family="Orbitron-Regular_Bold, Orbitron" font-size="36" font-weight="bold" letter-spacing="1.125">
            <tspan x="16" y="46">A yattis</tspan>
        </text>
        <filter x="-5.2%" y="-14.4%" width="110.3%" height="137.8%" filterUnits="objectBoundingBox" id="filter-9">
            <feOffset dx="0" dy="2" in="SourceAlpha" result="shadowOffsetOuter1"></feOffset>
            <feGaussianBlur stdDeviation="2.5" in="shadowOffsetOuter1" result="shadowBlurOuter1"></feGaussianBlur>
            <feColorMatrix values="0 0 0 0 0   0 0 0 0 0   0 0 0 0 0  0 0 0 0.5 0" type="matrix" in="shadowBlurOuter1"></feColorMatrix>
        </filter>
    </defs>
    <g id="Tablet" stroke="none" stroke-width="1" fill="none" fill-rule="evenodd">
        <g id="Group" filter="url(#filter-1)" transform="translate(29.991350, 32.508802) rotate(-1.000000) translate(-29.991350, -32.508802) translate(-8.508650, -5.491198)" fill-rule="nonzero">
            <g id="bulb" transform="translate(0.000000, 0.000000)">
                <g id="Path" transform="translate(38.653400, 37.600248) rotate(-129.000000) translate(-38.653400, -37.600248) ">
                    <use fill="black" fill-opacity="1" filter="url(#filter-3)" xlink:href="#path-2"></use>
                    <use fill="#FF6F6F" xlink:href="#path-2"></use>
                </g>
                <g id="Path">
                    <use fill="black" fill-opacity="1" filter="url(#filter-5)" xlink:href="#path-4"></use>
                    <use fill="#000000" xlink:href="#path-4"></use>
                </g>
            </g>
            <g id="wifi" transform="translate(60.039880, 20.885954) rotate(55.000000) translate(-60.039880, -20.885954) translate(49.539880, 10.385954)">
                <path d="M10.9808763,16.3238168 C9.86687731,16.3238168 8.9636349,17.2311224 8.9636349,18.3501326 C8.9636349,19.4691428 9.86687731,20.3764484 10.9808763,20.3764484 C12.0948753,20.3764484 12.9981177,19.4691428 12.9981177,18.3501326 C12.9981177,17.2311224 12.0948753,16.3238168 10.9808763,16.3238168 Z M10.3773347,18.966448 C10.0037715,18.966448 9.70492095,18.6662531 9.70492095,18.2910094 C9.70492095,17.9157657 10.0037715,17.6155708 10.3773347,17.6155708 C10.750898,17.6155708 11.0497485,17.9157657 11.0497485,18.2910094 C11.0497485,18.6662531 10.750898,18.966448 10.3773347,18.966448 Z" id="Shape" fill="#000000"></path>
                <g id="Path">
                    <use fill="black" fill-opacity="1" filter="url(#filter-7)" xlink:href="#path-6"></use>
                    <use fill="#FF6E6F" xlink:href="#path-6"></use>
                </g>
            </g>
        </g>
        <g id="A-yattis" fill="#000000">
            <use fill-opacity="1" filter="url(#filter-9)" xlink:href="#text-8"></use>
            <use fill-rule="evenodd" xlink:href="#text-8"></use>
            <use fill-opacity="1" xlink:href="#text-8"></use>
        </g>
        <circle id="Oval" stroke="#5F5F5F" fill-opacity="0.972847465" fill="#000000" cx="149" cy="20.5" r="3.5"></circle>
    </g>
</svg>